<?xml version="1.0" encoding="iso-8859-1"?>
<!-- Generator: Adobe Illustrator 19.0.0, SVG Export Plug-In . SVG Version: 6.00 Build 0)  -->
<svg xmlns="http://www.w3.org/2000/svg" xmlns:xlink="http://www.w3.org/1999/xlink" version="1.1" id="Layer_1" x="0px" y="0px" viewBox="0 0 512 512" style="enable-background:new 0 0 512 512;" xml:space="preserve">
<circle style="fill:#F6CDB5;" cx="89.39" cy="214.29" r="40.07"/>
<circle style="opacity:0.15;fill:#EC8087;enable-background:new    ;" cx="89.39" cy="214.29" r="40.07"/>
<path style="opacity:0.1;enable-background:new    ;" d="M89.395,174.226c-4.576,0-8.967,0.777-13.063,2.19  c-0.373,4.551-0.573,9.15-0.573,13.797v51.545c0,3.471,0.119,6.914,0.328,10.333c4.165,1.467,8.641,2.273,13.308,2.273  c22.129,0,40.068-17.939,40.068-40.068C129.464,192.165,111.524,174.226,89.395,174.226z"/>
<circle style="fill:#F6CDB5;" cx="422.61" cy="214.29" r="40.07"/>
<circle style="opacity:0.15;fill:#EC8087;enable-background:new    ;" cx="422.61" cy="214.29" r="40.07"/>
<path style="opacity:0.1;enable-background:new    ;" d="M422.605,174.226c4.576,0,8.967,0.777,13.063,2.19  c0.373,4.551,0.573,9.15,0.573,13.797v51.545c0,3.471-0.119,6.914-0.328,10.333c-4.165,1.467-8.641,2.273-13.308,2.273  c-22.129,0-40.068-17.939-40.068-40.068C382.537,192.165,400.476,174.226,422.605,174.226z"/>
<path style="fill:#E8E8E8;" d="M129.464,393.94c-73.445,11.742-83.837,77.424-84.885,105.419C44.32,506.27,49.867,512,56.783,512  h72.681V393.94z"/>
<path style="opacity:0.08;enable-background:new    ;" d="M118.427,396.236C88.087,425.932,68.63,466.695,66.589,512h62.874V393.94  C125.608,394.556,121.943,395.335,118.427,396.236z"/>
<path style="fill:#E8E8E8;" d="M382.536,393.94c73.445,11.742,83.837,77.424,84.885,105.419C467.68,506.27,462.133,512,455.217,512  h-72.681V393.94z"/>
<path style="opacity:0.08;enable-background:new    ;" d="M393.573,396.236c30.34,29.697,49.797,70.46,51.838,115.764h-62.875  V393.94C386.392,394.556,390.057,395.335,393.573,396.236z"/>
<path style="fill:#E8E8E8;" d="M429.071,512c0-95.585-77.487-173.071-173.071-173.071S82.929,416.415,82.929,512H429.071z"/>
<path style="opacity:0.1;enable-background:new    ;" d="M256,338.929c-44.188,0-84.5,16.568-115.085,43.821  c28.947,30.385,69.804,49.322,115.085,49.322l0,0c45.28,0,86.137-18.937,115.085-49.322C340.5,355.497,300.188,338.929,256,338.929z  "/>
<path style="fill:#F6CDB5;" d="M256,23.608L256,23.608c-92.014,0-166.605,74.591-166.605,166.605v51.545  c0,92.013,74.591,166.605,166.605,166.605l0,0c92.013,0,166.605-74.591,166.605-166.605v-51.545  C422.605,98.2,348.013,23.608,256,23.608z"/>
<g>
	<path style="fill:#394049;" d="M89.395,150.663v82.475l0,0c22.033-18.494,34.757-45.787,34.757-74.553v-7.922H89.395z"/>
	<path style="fill:#394049;" d="M422.605,150.663v82.475l0,0c-22.033-18.494-34.757-45.787-34.757-74.553v-7.922H422.605z"/>
	<path style="fill:#394049;" d="M149.469,227.582c-4.143,0-7.5-3.358-7.5-7.5v-23.483c0-4.142,3.357-7.5,7.5-7.5s7.5,3.358,7.5,7.5   v23.483C156.969,224.224,153.611,227.582,149.469,227.582z"/>
	<path style="fill:#394049;" d="M362.531,227.582c-4.143,0-7.5-3.358-7.5-7.5v-23.483c0-4.142,3.357-7.5,7.5-7.5   c4.142,0,7.5,3.358,7.5,7.5v23.483C370.031,224.224,366.674,227.582,362.531,227.582z"/>
</g>
<g>
	<path style="fill:#EC8087;" d="M165.255,260.043H133.69c-4.143,0-7.5-3.358-7.5-7.5s3.357-7.5,7.5-7.5h31.565   c4.143,0,7.5,3.358,7.5,7.5S169.398,260.043,165.255,260.043z"/>
	<path style="fill:#EC8087;" d="M378.31,260.043h-31.565c-4.143,0-7.5-3.358-7.5-7.5s3.357-7.5,7.5-7.5h31.565   c4.143,0,7.5,3.358,7.5,7.5S382.453,260.043,378.31,260.043z"/>
</g>
<g>
	<path style="fill:#394049;" d="M256,260.353c-9.556,0-18.675-4.602-24.394-12.311c-2.468-3.327-1.771-8.024,1.555-10.492   c3.326-2.469,8.024-1.77,10.492,1.555c2.945,3.971,7.446,6.248,12.347,6.248c4.9,0,9.401-2.277,12.347-6.248   c2.469-3.327,7.165-4.022,10.492-1.555c3.326,2.468,4.022,7.166,1.555,10.492C274.675,255.751,265.556,260.353,256,260.353z"/>
	<circle style="fill:#394049;" cx="256" cy="22.564" r="22.564"/>
</g>
<path style="fill:#4DB1E0;" d="M306.874,22.564H205.126c-63.917,0-115.731,51.814-115.731,115.731v21.644h333.21v-21.644  C422.605,74.379,370.79,22.564,306.874,22.564z"/>
<path style="fill:#FFFFFF;" d="M329.826,132.97H182.174V96.048c0-14.953,12.122-27.075,27.075-27.075h93.502  c14.953,0,27.075,12.122,27.075,27.075V132.97z"/>
<path style="fill:#EC8087;" d="M278.565,108.472h-45.129c-4.143,0-7.5-3.358-7.5-7.5s3.357-7.5,7.5-7.5h45.129  c4.142,0,7.5,3.358,7.5,7.5S282.707,108.472,278.565,108.472z"/>
<path style="opacity:0.4;fill:#FFFFFF;enable-background:new    ;" d="M364.973,132.97H147.028c-5.608,0-10.155,4.546-10.155,10.154  v6.66c0,5.608,4.546,10.154,10.155,10.154h217.945c5.608,0,10.154-4.546,10.154-10.154v-6.66  C375.127,137.516,370.581,132.97,364.973,132.97z"/>
<path style="fill:#EC8087;" d="M321.082,511.929c0-35.944-29.138-65.082-65.082-65.082s-65.083,29.138-65.083,65.082H321.082z"/>
<path style="fill:#FFFFFF;" d="M290.353,511.929c0-18.973-15.38-34.353-34.353-34.353s-34.353,15.38-34.353,34.353H290.353z"/>
<g>
</g>
<g>
</g>
<g>
</g>
<g>
</g>
<g>
</g>
<g>
</g>
<g>
</g>
<g>
</g>
<g>
</g>
<g>
</g>
<g>
</g>
<g>
</g>
<g>
</g>
<g>
</g>
<g>
</g>
</svg>
