<?xml version="1.0" encoding="iso-8859-1"?>
<!-- Generator: Adobe Illustrator 19.0.0, SVG Export Plug-In . SVG Version: 6.00 Build 0)  -->
<svg xmlns="http://www.w3.org/2000/svg" xmlns:xlink="http://www.w3.org/1999/xlink" version="1.1" id="Layer_1" x="0px" y="0px" viewBox="0 0 512 512" style="enable-background:new 0 0 512 512;" xml:space="preserve">
<path style="fill:#F9D7C3;" d="M79.76,227.653c0,16.321-13.231,29.553-29.553,29.553c-16.321,0-29.553-13.231-29.553-29.553v-30.766  c0-16.321,13.231-29.553,29.553-29.553c16.321,0,29.553,13.231,29.553,29.553V227.653z"/>
<path style="opacity:0.15;fill:#EC8087;enable-background:new    ;" d="M79.76,227.653c0,16.321-13.231,29.553-29.553,29.553  c-16.321,0-29.553-13.231-29.553-29.553v-30.766c0-16.321,13.231-29.553,29.553-29.553c16.321,0,29.553,13.231,29.553,29.553  V227.653z"/>
<path style="opacity:0.07;enable-background:new    ;" d="M50.208,167.335c-2.017,0-3.986,0.204-5.889,0.588  c-2.028,11.524-3.091,23.381-3.091,35.486c0,18.603,2.512,36.618,7.189,53.737c0.593,0.035,1.189,0.059,1.791,0.059  c16.321,0,29.553-13.231,29.553-29.553v-30.766C79.76,180.566,66.529,167.335,50.208,167.335z"/>
<path style="fill:#F9D7C3;" d="M432.24,227.653c0,16.321,13.231,29.553,29.553,29.553c16.321,0,29.553-13.231,29.553-29.553v-30.766  c0-16.321-13.231-29.553-29.553-29.553c-16.322,0-29.553,13.231-29.553,29.553V227.653z"/>
<path style="opacity:0.15;fill:#EC8087;enable-background:new    ;" d="M432.24,227.653c0,16.321,13.231,29.553,29.553,29.553  c16.321,0,29.553-13.231,29.553-29.553v-30.766c0-16.321-13.231-29.553-29.553-29.553c-16.322,0-29.553,13.231-29.553,29.553  V227.653z"/>
<path style="opacity:0.07;enable-background:new    ;" d="M461.792,167.335c2.017,0,3.986,0.204,5.889,0.588  c2.028,11.524,3.091,23.381,3.091,35.486c0,18.603-2.512,36.618-7.189,53.737c-0.593,0.035-1.189,0.059-1.791,0.059  c-16.322,0-29.553-13.231-29.553-29.553v-30.766C432.24,180.566,445.471,167.335,461.792,167.335z"/>
<path style="fill:#E36566;" d="M439.64,478.5L439.64,478.5c-12.823-14.807-12.823-36.786,0-51.593l0,0  c12.824-14.807,12.824-36.786,0-51.593l0,0c-12.823-14.807-12.823-36.786,0-51.593l0,0c12.824-14.807,12.824-36.786,0-51.593l0,0  c-12.823-14.807-12.823-36.786,0-51.593l0,0c12.824-14.807,12.824-36.786,0-51.593l-22.34-25.796H94.7l-22.34,25.796  c-12.824,14.807-12.824,36.786,0,51.593l0,0c12.823,14.807,12.823,36.786,0,51.593l0,0c-12.824,14.807-12.824,36.786,0,51.593l0,0  c12.823,14.807,12.823,36.786,0,51.593l0,0c-12.824,14.807-12.824,36.786,0,51.593l0,0c12.823,14.807,12.823,36.786,0,51.593l0,0  H439.64z"/>
<path style="fill:#AD82C6;" d="M128.89,393.404C55.112,405.2,44.673,471.179,43.62,499.301C43.359,506.243,48.932,512,55.879,512  h73.01L128.89,393.404L128.89,393.404z"/>
<path style="opacity:0.1;enable-background:new    ;" d="M117.803,395.71C87.325,425.542,67.78,466.49,65.73,512h63.16V393.404  C125.016,394.023,121.334,394.805,117.803,395.71z"/>
<path style="fill:#AD82C6;" d="M383.11,393.404c73.778,11.796,84.218,77.775,85.27,105.897c0.26,6.942-5.313,12.699-12.26,12.699  h-73.01L383.11,393.404L383.11,393.404z"/>
<path style="opacity:0.1;enable-background:new    ;" d="M394.198,395.71c30.477,29.832,50.023,70.78,52.073,116.29h-63.16V393.404  C386.984,394.023,390.666,394.805,394.198,395.71z"/>
<path style="fill:#AD82C6;" d="M429.857,512c0-96.018-77.838-173.857-173.857-173.857S82.143,415.982,82.143,512H429.857z"/>
<path style="fill:#FFFFFF;" d="M256,489.838c-53.874,0-97.703-43.829-97.703-97.703V287.043h195.406v105.092  C353.703,446.009,309.873,489.838,256,489.838z"/>
<path style="fill:#F9D7C3;" d="M328.535,392.135c0,40.06-32.475,72.535-72.535,72.535s-72.535-32.475-72.535-72.535V312.21h145.071  v79.925H328.535z"/>
<path style="opacity:0.1;enable-background:new    ;" d="M256,338.143c-50.377,0-95.74,21.435-127.493,55.671  c34.88,28.095,79.218,44.923,127.493,44.923s92.612-16.828,127.493-44.923C351.74,359.578,306.377,338.143,256,338.143z"/>
<circle style="fill:#F9D7C3;" cx="256" cy="203.41" r="203.41"/>
<g>
	<path style="fill:#394049;" d="M132.669,192.068c-4.142,0-7.5-3.358-7.5-7.5v-24.702c0-4.142,3.358-7.5,7.5-7.5s7.5,3.358,7.5,7.5   v24.702C140.169,188.71,136.811,192.068,132.669,192.068z"/>
	<path style="fill:#394049;" d="M379.331,192.068c-4.143,0-7.5-3.358-7.5-7.5v-24.702c0-4.142,3.357-7.5,7.5-7.5s7.5,3.358,7.5,7.5   v24.702C386.831,188.71,383.474,192.068,379.331,192.068z"/>
</g>
<g>
	<path style="fill:#EC8087;" d="M149.272,226.216h-33.206c-4.142,0-7.5-3.358-7.5-7.5s3.358-7.5,7.5-7.5h33.206   c4.142,0,7.5,3.358,7.5,7.5S153.414,226.216,149.272,226.216z"/>
	<path style="fill:#EC8087;" d="M395.926,226.216h-33.205c-4.143,0-7.5-3.358-7.5-7.5s3.357-7.5,7.5-7.5h33.205   c4.143,0,7.5,3.358,7.5,7.5C403.426,222.858,400.068,226.216,395.926,226.216z"/>
</g>
<path style="fill:#394049;" d="M256,226.216c-10.469,0-20.46-5.043-26.727-13.49c-2.468-3.327-1.772-8.024,1.555-10.492  c3.328-2.467,8.024-1.771,10.492,1.555c3.502,4.72,8.852,7.427,14.68,7.427c5.827,0,11.178-2.707,14.68-7.427  c2.469-3.325,7.164-4.023,10.492-1.555c3.326,2.468,4.022,7.165,1.555,10.492C276.46,221.173,266.469,226.216,256,226.216z"/>
<path style="fill:#E36566;" d="M256,0C157.226,0,74.907,70.408,56.464,163.77c16.071,2.588,32.482-5.022,40.673-19.734l0,0  c9.528-17.115,30.181-24.632,48.481-17.646l0,0c18.3,6.986,38.953-0.532,48.482-17.646l0,0  c9.528-17.114,30.181-24.632,48.481-17.646l0,0c18.3,6.986,38.953-0.531,48.482-17.646l0,0c1.161-2.085,2.488-4.026,3.955-5.816  c4.004-4.882,10.799-6.554,16.658-4.201c11.965,4.806,21.22,15.355,23.941,28.706v1.217c0,19.465,17.561,33.802,36.777,30.704  c21.174-3.414,40.805,10.494,44.988,31.022v0.862c0,21.139,19.814,34.765,40.549,30.649c0.264-0.053,0.518-0.043,0.776-0.055  C450.132,82.094,362.658,0,256,0z"/>
<path style="opacity:0.1;enable-background:new    ;" d="M298.059,4.367c-4.858,4.091-9.049,9.085-12.275,14.878  c-9.033,16.223-28.928,23.462-46.272,16.841c-24.917-9.513-53.492,0.888-66.466,24.191c-9.032,16.223-28.924,23.464-46.272,16.842  c-9.159-3.497-18.81-4.294-28.001-2.758c-7.344,8.939-13.938,18.516-19.692,28.634c10.159-11.681,26.935-16.232,41.84-10.542  c24.915,9.512,53.491-0.888,66.466-24.191c9.032-16.224,28.925-23.464,46.272-16.842c6.227,2.377,12.678,3.51,19.06,3.51  c19.161-0.002,37.674-10.221,47.406-27.702c4.492-8.069,11.672-13.913,19.887-16.938C312.861,7.923,305.536,5.939,298.059,4.367z"/>
<g>
</g>
<g>
</g>
<g>
</g>
<g>
</g>
<g>
</g>
<g>
</g>
<g>
</g>
<g>
</g>
<g>
</g>
<g>
</g>
<g>
</g>
<g>
</g>
<g>
</g>
<g>
</g>
<g>
</g>
</svg>
